<svg width="1440" height="1057" viewBox="0 0 1440 1057" fill="none"
    xmlns="http://www.w3.org/2000/svg">
    <g clip-path="url(#clip0_1568_16458)">
        <rect width="1440" height="1057" fill="#F5F1FF" />
        <path opacity="0.05"
            d="M-214.728 482.272C-4.05008 602.885 109.533 1018.07 24.9205 1230.32C-68.5609 1464.71 -653.099 1429.11 -720.171 1371.95C-787.244 1314.8 -238.903 1131.91 -313.728 916.241C-396.83 676.855 -814.113 676.527 -802.748 574.308C-791.58 473.732 -458.253 342.871 -214.728 482.272Z"
            stroke="#9E77ED" stroke-width="5" stroke-miterlimit="10" />
        <path opacity="0.05"
            d="M-148.774 452.777C98.1667 557.886 205.312 1060.44 96.4588 1297.2C-26.913 1565.36 -661.969 1465.96 -756.238 1423.52C-837.501 1387 -309.985 1141.04 -373.05 880.439C-441.502 597.302 -817.859 551.317 -789.742 485.624C-759.523 415.2 -438.546 329.734 -148.774 452.777Z"
            stroke="#9E77ED" stroke-width="5" stroke-miterlimit="10" />
        <path opacity="0.05"
            d="M-82.8216 423.347C199.987 512.624 300.892 1102.75 167.995 1364.01C14.4699 1666.2 -665.783 1501.96 -792.308 1475.16C-884.278 1455.45 -381.528 1150.5 -432.309 844.506C-486.506 518.142 -830.081 422.427 -776.738 397.398C-736.928 353.055 -419.893 316.858 -82.8216 423.347Z"
            stroke="#9E77ED" stroke-width="5" stroke-miterlimit="10" />
        <path opacity="0.05"
            d="M-16.864 393.654C301.616 467.756 396.28 1144.79 239.339 1430.69C55.3985 1766.25 -678.591 1585.39 -828.569 1526.6C-922.51 1489.74 -453.527 1159.83 -491.76 808.638C-532.03 439.048 -838.226 295.312 -763.927 308.91C-709.598 292.684 -401.169 304.377 -16.864 393.654Z"
            stroke="#9E77ED" stroke-width="5" stroke-miterlimit="10" />
        <path opacity="0.05"
            d="M49.0984 364.356C403.119 423.48 491.542 1187.1 311.083 1497.76C96.6602 1866.96 -674.315 1625.07 -864.431 1578.37C-971.116 1552.09 -525.323 1169.62 -550.877 773.033C-577.155 360.218 -853.066 185.014 -750.716 220.685C-685.154 243.481 -382.571 292.225 49.0984 364.356Z"
            stroke="#9E77ED" stroke-width="5" stroke-miterlimit="10" />
        <path opacity="0.05"
            d="M114.981 334.859C504.607 379.333 586.724 1229.27 382.615 1564.57C137.514 1967.33 -671.235 1594.39 -900.57 1630.26C-1019.41 1648.72 -597.593 1179.48 -610.206 737.427C-623.345 281.516 -863.125 54.809 -737.716 132.59C-659.673 180.677 -364.054 280.268 114.981 334.859Z"
            stroke="#9E77ED" stroke-width="5" stroke-miterlimit="10" />
        <path opacity="0.05"
            d="M180.931 305.43C606.097 335.254 681.841 1271.12 454.214 1631.45C178.303 2067.65 -674.066 1621.46 -936.575 1681.57C-1065.01 1711 -669.796 1188.87 -669.401 701.362C-669.007 202.094 -871.079 -75.1309 -724.649 43.9051C-632.81 118.598 -345.534 268.444 180.931 305.43Z"
            stroke="#9E77ED" stroke-width="5" stroke-miterlimit="10" />
        <path opacity="0.05"
            d="M246.899 275.933C707.605 291.305 776.78 1313.36 525.766 1698.32C219.242 2167.96 -677.601 1647.54 -972.629 1733.2C-1110.98 1773.34 -742.177 1198.33 -728.71 665.56C-714.98 123.197 -878.491 -204.021 -711.63 -44.4523C-605.47 56.9779 -326.865 256.817 246.899 275.933Z"
            stroke="#9E77ED" stroke-width="5" stroke-miterlimit="10" />
        <path opacity="0.05"
            d="M312.849 246.434C809.095 247.42 872.029 1355.4 597.3 1765.19C260.031 2268.27 -681.746 1673.22 -1008.7 1784.9C-1157.3 1835.68 -814.643 1207.99 -787.971 629.82C-760.971 44.2308 -885.788 -332.322 -698.629 -132.812C-577.885 -4.25085 -308.411 245.252 312.849 246.434Z"
            stroke="#9E77ED" stroke-width="5" stroke-miterlimit="10" />
        <path opacity="0.05"
            d="M378.806 217.006C910.921 203.868 967.089 1397.38 668.842 1832.01C300.96 2368.46 -686.408 1698.19 -1044.76 1836.41C-1203.87 1897.77 -887.101 1217.45 -847.225 593.954C-807.021 -34.8612 -893.21 -460.487 -685.554 -221.298C-550.226 -65.2771 -289.819 233.824 378.806 217.006Z"
            stroke="#9E77ED" stroke-width="5" stroke-miterlimit="10" />
        <path opacity="0.05"
            d="M444.762 187.508C1012.22 159.851 1062.28 1439.36 740.381 1898.88C341.493 2468.7 -691.729 1723.09 -1080.83 1888.04C-1250.65 1959.91 -959.692 1226.97 -906.546 558.149C-853.137 -113.958 -900.371 -588.328 -672.547 -309.658C-522.504 -126.177 -271.162 222.457 444.762 187.508Z"
            stroke="#9E77ED" stroke-width="5" stroke-miterlimit="10" />
        <path opacity="0.05"
            d="M510.722 158.011C1113.79 116.099 1157.08 1481.33 811.925 1965.76C382.161 2568.88 -696.784 1747.79 -1116.89 1939.48C-1297.48 2021.99 -1032.21 1236.56 -965.798 522.148C-899.25 -193.185 -907.659 -716.234 -659.536 -398.213C-494.843 -187.01 -252.501 211.091 510.722 158.011Z"
            stroke="#9E77ED" stroke-width="5" stroke-miterlimit="10" />
        <path opacity="0.05"
            d="M576.67 128.582C1215.4 72.414 1252.06 1523.58 883.457 2032.57C422.816 2669.07 -702.376 1772.42 -1153.03 1991.25C-1344.59 2084.27 -1104.88 1245.96 -1025.13 486.478C-945.375 -273 -914.959 -843.743 -646.537 -486.635C-467.129 -247.774 -233.852 199.859 576.67 128.582Z"
            stroke="#9E77ED" stroke-width="5" stroke-miterlimit="10" />
        <path opacity="0.05"
            d="M642.623 99.084C1317.03 28.7267 1347.05 1565.22 955.059 2099.44C463.477 2769.51 -708.226 1797.25 -1189.03 2042.88C-1391.7 2146.48 -1177.47 1255.42 -1084.38 450.674C-991.56 -351.243 -922.32 -971.255 -633.467 -574.862C-439.409 -308.476 -215.199 188.558 642.623 99.084Z"
            stroke="#9E77ED" stroke-width="5" stroke-miterlimit="10" />
        <path opacity="0.05"
            d="M708.593 69.5924C1418.67 -14.9547 1441.01 1606.42 1026.42 2166.32C502.645 2868.45 -714.452 1821.43 -1225.28 2094.45C-1439.05 2208.69 -1250.31 1264.88 -1143.82 414.876C-1037.92 -430.332 -929.859 -1098.83 -620.642 -663.28C-411.672 -369.172 -196.395 177.395 708.593 69.5924Z"
            stroke="#9E77ED" stroke-width="5" stroke-miterlimit="10" />
        <path opacity="0.05"
            d="M774.541 40.161C1520.29 -58.5759 1536.06 1648.4 1098.14 2233.06C543.629 2968.83 -720.307 1845.47 -1261.16 2145.96C-1486.16 2270.77 -1322.78 1274.21 -1202.89 378.809C-1083.98 -509.757 -937.029 -1226.53 -607.446 -751.967C-383.958 -429.874 -177.682 166.16 774.541 40.161Z"
            stroke="#9E77ED" stroke-width="5" stroke-miterlimit="10" />
        <path opacity="0.05"
            d="M840.494 10.6622C1622.24 -102.199 1631.18 1690.44 1169.68 2300C584.422 3068.61 -726.485 1870.3 -1297.23 2197.65C-1533.72 2333.18 -1397.01 1283.6 -1262.15 343.201C-1131.75 -588.853 -944.389 -1353.78 -594.442 -840.064C-356.238 -490.511 -158.896 154.99 840.494 10.6622Z"
            stroke="#9E77ED" stroke-width="5" stroke-miterlimit="10" />
        <path opacity="0.05"
            d="M906.449 -18.8312C1723.87 -144.371 1726.3 1732.48 1241.22 2366.88C625.216 3169.26 -732.793 1894.74 -1333.36 2249.29C-1580.83 2395.39 -1469.34 1293.06 -1321.47 307.401C-1177.67 -667.945 -951.748 -1481.16 -581.37 -928.484C-328.517 -551.143 -139.846 145.664 906.449 -18.8312Z"
            stroke="#9E77ED" stroke-width="5" stroke-miterlimit="10" />
        <path opacity="0.05"
            d="M972.415 -48.2632C1825.51 -188.321 1821.3 1774.46 1312.77 2433.76C666.088 3269.5 -739.155 1919.12 -1369.41 2300.92C-1628.18 2457.67 -1541.73 1302.39 -1380.71 271.597C-1223.58 -747.041 -959.161 -1608.61 -568.352 -1016.84C-300.587 -611.451 -121.114 134.101 972.415 -48.2632Z"
            stroke="#9E77ED" stroke-width="5" stroke-miterlimit="10" />
        <path opacity="0.05"
            d="M1038.37 -77.7577C1927.13 -232.268 1916.49 1816.5 1384.31 2500.57C706.879 3369.56 -745.662 1943.55 -1405.48 2352.49C-1675.61 2519.95 -1614.45 1312.05 -1439.97 235.993C-1269.17 -825.937 -965.471 -1736.51 -555.349 -1105.07C-272.277 -672.872 -102.395 122.475 1038.37 -77.7577Z"
            stroke="#9E77ED" stroke-width="5" stroke-miterlimit="10" />
        <path opacity="0.05"
            d="M1104.32 -107.256C2028.75 -276.415 2011.8 1858.61 1455.84 2567.44C747.669 3470 -752.172 1967.99 -1441.56 2403.87C-1723.12 2582.03 -1686.53 1321.24 -1499.3 199.729C-1315.43 -905.296 -973.427 -1863.69 -542.348 -1193.69C-244.955 -733.18 -83.8097 111.174 1104.32 -107.256Z"
            stroke="#9E77ED" stroke-width="5" stroke-miterlimit="10" />
        <path opacity="0.05"
            d="M-529.271 -1282.05C-217.622 -793.553 -64.8859 99.2831 1170.28 -136.687C2130.45 -320.168 2106.73 1900.52 1527.45 2634.32C788.468 3570.31 -758.671 1992.43 -1477.62 2455.7C-2059 2830.41 -1440.63 -2710.68 -529.271 -1282.05Z"
            stroke="#9E77ED" stroke-width="5" stroke-miterlimit="10" />
    </g>
    <defs>
        <clipPath id="clip0_1568_16458">
            <rect width="1440" height="1057" fill="white" />
        </clipPath>
    </defs>
</svg>
    