<svg width="25" height="24" viewBox="0 0 25 24" fill="none" xmlns="http://www.w3.org/2000/svg">
    <path d="M17.439 3C18.78 3 20.07 3.53 21.019 4.481C21.969 5.43 22.5 6.71 22.5 8.05V15.95C22.5 18.74 20.23 21 17.439 21H7.56C4.769 21 2.5 18.74 2.5 15.95V8.05C2.5 5.26 4.759 3 7.56 3H17.439ZM18.57 8.2C18.36 8.189 18.16 8.26 18.009 8.4L13.5 12C12.92 12.481 12.089 12.481 11.5 12L7 8.4C6.689 8.17 6.259 8.2 6 8.47C5.73 8.74 5.7 9.17 5.929 9.47L6.06 9.6L10.61 13.15C11.17 13.59 11.849 13.83 12.56 13.83C13.269 13.83 13.96 13.59 14.519 13.15L19.03 9.54L19.11 9.46C19.349 9.17 19.349 8.75 19.099 8.46C18.96 8.311 18.769 8.22 18.57 8.2Z" fill="#9E77ED"/>
    </svg>
    