<svg width="424" height="36" viewBox="0 0 424 36" fill="none" xmlns="http://www.w3.org/2000/svg">
    <path fill-rule="evenodd" clip-rule="evenodd" d="M253.652 16.4426C197.359 17.082 141.037 19.6185 84.9884 24.1525C58.3411 26.3085 27.3957 26.039 1.55116 33.3894C0.263395 33.7593 0.508645 34.869 0.536519 34.98C0.592266 35.2072 0.826466 35.9628 1.85222 35.9998C1.96371 36.0051 2.7497 35.8994 3.05073 35.8624C10.6826 34.9112 18.2865 33.8016 25.9239 32.9033C52.2925 29.7908 78.7391 27.4393 105.225 25.3785C140.379 22.6412 175.834 21.1827 211.084 20.0413C230.378 19.4177 250.135 20.2473 269.49 18.958C276.598 18.921 283.706 18.9158 290.814 18.9369C320.527 19.0373 350.207 20.1048 379.87 21.5685C389.409 22.0388 396.684 22.5461 406.021 22.8896C409.567 23.0217 415.192 23.1115 419.105 23.1697C419.679 23.1802 421.145 23.1907 421.753 23.196C421.814 23.2066 421.876 23.2066 421.943 23.2066C422.177 23.2066 422.288 23.1907 422.311 23.1907C423.637 23.0057 423.515 21.8168 423.481 21.6371C423.476 21.6002 423.275 20.5961 422.132 20.5591C421.859 20.5486 419.902 20.5381 419.15 20.5275C415.259 20.4694 409.656 20.3795 406.127 20.2527C396.806 19.9092 389.537 19.402 380.015 18.9317C350.307 17.4679 320.583 16.3952 290.825 16.2948C287.19 16.2842 283.55 16.2789 279.915 16.2842C279.792 15.983 279.519 15.6448 278.917 15.4969C278.354 15.3595 274.323 15.2379 272.768 15.1164C261.256 14.2181 261.596 14.2603 248.93 13.5258C229.748 12.4108 226.827 12.1571 206.875 11.6868C170.633 10.8307 134.375 10.8995 98.128 10.9841C80.2331 11.0316 61.0727 12.1783 42.9046 10.0381C48.8919 9.37233 54.9015 8.88618 60.8999 8.33133C81.3815 6.43956 101.88 5.26639 122.445 4.44204C171.776 2.46571 221.185 1.67841 270.499 4.3734C260.002 4.46852 249.51 4.69039 239.013 4.83307C196.283 5.42491 153.14 4.98108 110.498 8.05125C109.735 8.10938 109.16 8.74346 109.216 9.4674C109.272 10.1966 109.946 10.7409 110.71 10.6881C153.296 7.61793 196.377 8.06706 239.052 7.47521C254.907 7.25856 270.756 6.86756 286.61 6.98381C292.051 7.02609 297.492 7.21635 302.933 7.27976C304.009 7.29562 306.78 7.49642 307.175 7.41187C308.051 7.22692 308.24 6.6139 308.296 6.3127C308.324 6.13303 308.413 5.09731 307.075 4.72741C297.944 2.20152 281.091 2.31777 272.216 1.82105C222.294 -0.979625 172.272 -0.197571 122.328 1.79989C101.713 2.62953 81.1641 3.80799 60.6267 5.70505C53.452 6.36559 46.2606 6.93629 39.1138 7.81348C37.9598 7.95616 35.3676 8.16228 34.1133 8.37894C33.5892 8.46877 33.2101 8.59551 33.0429 8.68534C32.3906 9.0341 32.2736 9.5414 32.2736 9.88488C32.268 10.1491 32.3851 11.0791 33.7509 11.3328C54.5614 15.1956 77.206 13.679 98.1336 13.6262C134.358 13.5417 170.589 13.4729 206.808 14.3289C226.71 14.7992 229.62 15.0477 248.763 16.1627C250.653 16.2684 252.253 16.3634 253.652 16.4426Z" fill="#C5ADF4"/>
    </svg>
    